<svg height="496pt" viewBox="0 0 496 496" width="496pt" xmlns="http://www.w3.org/2000/svg"><path d="m280 168h-256l100.71875-100.71875c7.203125-7.203125 17.042969-11.28125 27.28125-11.28125s20.078125 4.078125 27.28125 11.28125zm0 0" fill="#cf9e76"/><path d="m296 176v16c0 4.398438-3.601562 8-8 8h-272c-4.398438 0-8-3.601562-8-8v-16c0-4.398438 3.601562-8 8-8h272c4.398438 0 8 3.601562 8 8zm0 0" fill="#fcd770"/><path d="m280 264v48h-32v-80h-64v80h-64v-80h-64v80h-32v-112h256zm0 0" fill="#e6e9ed"/><path d="m448 344h-432c-4.414062 0-8-3.585938-8-8v-16c0-4.414062 3.585938-8 8-8h432c4.414062 0 8 3.585938 8 8v16c0 4.414062-3.585938 8-8 8zm0 0" fill="#fcd770"/><path d="m440 456v32h-160v-144h160zm0 0" fill="#969faa"/><path d="m280 344v144h-56v-112h-144v112h-56v-144zm0 0" fill="#e6e9ed"/><path d="m416 152-24 56-8-40-32-16 15.039062-40h32.960938l1.921875.878906-9.921875 23.121094zm0 0" fill="#fcd770"/><path d="m463.121094 48.800781c14.238281 3.277344 24.878906 16 24.878906 31.199219 0 17.679688-14.320312 32-32 32h-53.679688l-.398437.878906-1.921875-.878906h-88c-17.679688 0-32-14.320312-32-32 0-15.199219 10.640625-27.921875 24.878906-31.199219l-.238281-.800781c3.839844-22.71875 23.597656-40 47.359375-40 12.320312 0 23.519531 4.640625 32 12.320312 8.480469-7.679687 19.679688-12.320312 32-12.320312 23.761719 0 43.519531 17.28125 47.359375 40zm0 0" fill="#e6e9ed"/><path d="m408 264h32v48h-32zm0 0" fill="#cf9e76"/><path d="m376 264h32v48h-32zm0 0" fill="#cf9e76"/><path d="m280 264h32v48h-32zm0 0" fill="#cf9e76"/><path d="m312 264h32v48h-32zm0 0" fill="#cf9e76"/><path d="m344 264h32v48h-32zm0 0" fill="#cf9e76"/><g fill="#69d6f4"><path d="m152 376h72v112h-72zm0 0"/><path d="m80 376h72v112h-72zm0 0"/><path d="m184 232h32v40h-32zm0 0"/><path d="m216 232h32v40h-32zm0 0"/><path d="m216 272h32v40h-32zm0 0"/><path d="m184 272h32v40h-32zm0 0"/><path d="m88 272h32v40h-32zm0 0"/><path d="m88 232h32v40h-32zm0 0"/><path d="m56 272h32v40h-32zm0 0"/><path d="m56 232h32v40h-32zm0 0"/></g><path d="m448 304v-48h-160v-48c8.824219 0 16-7.175781 16-16v-16c0-8.824219-7.175781-16-16-16h-4.6875l-98.34375-98.34375c-8.800781-8.808594-20.511719-13.65625-32.96875-13.65625s-24.167969 4.847656-32.96875 13.65625l-98.34375 98.34375h-4.6875c-8.824219 0-16 7.175781-16 16v16c0 8.824219 7.175781 16 16 16v96c-8.824219 0-16 7.175781-16 16v16c0 8.824219 7.175781 16 16 16v144h432v-144c8.824219 0 16-7.175781 16-16v-16c0-8.824219-7.175781-16-16-16zm-16 0h-16v-32h16zm-112 0v-32h16v32zm32-32h16v32h-16zm32 0h16v32h-16zm-80 0v32h-16v-32zm-173.65625-199.03125c11.566406-11.5625 31.746094-11.5625 43.3125 0l87.03125 87.03125h-217.375zm-114.34375 103.03125h272l.007812 16h-272.007812zm16 32h240v96h-16v-80h-80v80h-48v-80h-80v80h-16zm208 56h-16v-24h16zm-32 0h-16v-24h16zm-16 16h16v24h-16zm32 0h16v24h-16zm-112-16h-16v-24h16zm-32 0h-16v-24h16zm-16 16h16v24h-16zm32 0h16v24h-16zm-8 200v-96h56v96zm72 0v-96h56v96zm-88-112v112h-40v-128h240v128h-40v-112zm360 76.902344-15.351562-5.117188-49.960938 8.328125 2.632812 15.78125 46.039063-7.671875 16.640625 5.546875v18.230469h-144v-128h69.390625l-12.007813 42.023438-36.359374 14.542968 5.945312 14.859375 32.121094-12.851562 5.308594 15.953125 15.175781-5.0625-7.214844-21.648438 3.351563-11.726562 20.289062 13.527344 28.441406-18.960938-8.875-13.3125-19.566406 13.039062-15.664062-10.4375 5.695312-19.945312h57.96875zm-416-108.902344v-16h432l.007812 16zm0 0"/><path d="m176 416h16v32h-16zm0 0"/><path d="m112 416h16v32h-16zm0 0"/><path d="m470.390625 42.785156c-6.015625-25.007812-28.269531-42.785156-54.390625-42.785156-11.496094 0-22.640625 3.542969-32 10.105469-9.359375-6.5625-20.503906-10.105469-32-10.105469-26.121094 0-48.375 17.777344-54.390625 42.785156-14.945313 5.808594-25.609375 20.246094-25.609375 37.214844 0 22.054688 17.945312 40 40 40h43.457031l-13.480469 35.9375 34.945313 17.46875 12.285156 61.425781 36.769531-85.800781-24-16 5.582032-13.03125h48.441406c22.054688 0 40-17.945312 40-40 0-16.96875-10.664062-31.40625-25.609375-37.214844zm-14.390625 61.214844h-58.992188l-14.984374 34.96875 24 16-11.230469 26.199219-3.714844-18.574219-29.054687-14.53125 16.519531-44.0625h-66.542969c-13.230469 0-24-10.769531-24-24s10.769531-24 24-24c6.878906 0 13.449219 2.960938 18 8.128906l12-10.578125c-6.839844-7.757812-16.40625-12.496093-26.625-13.367187 6.175781-14.398438 20.289062-24.183594 36.625-24.183594 9.824219 0 19.296875 3.640625 26.65625 10.246094l5.34375 4.800781 5.34375-4.800781c7.359375-6.605469 16.832031-10.246094 26.65625-10.246094 16.335938 0 30.449219 9.785156 36.625 24.183594-10.21875.871094-19.785156 5.609375-26.625 13.367187l12 10.578125c4.550781-5.167968 11.121094-8.128906 18-8.128906 13.230469 0 24 10.769531 24 24s-10.769531 24-24 24zm0 0"/></svg>