<?xml version="1.0" encoding="iso-8859-1"?>
<!-- Generator: Adobe Illustrator 19.1.0, SVG Export Plug-In . SVG Version: 6.00 Build 0)  -->
<svg version="1.1" id="Capa_1" xmlns="http://www.w3.org/2000/svg" xmlns:xlink="http://www.w3.org/1999/xlink" x="0px" y="0px"
	 viewBox="0 0 297.833 297.833" style="enable-background:new 0 0 297.833 297.833;" xml:space="preserve">
<g>
	<path style="fill:#FFFFFF;" d="M140.833,244.417v-13h-18.667c-4.418,0-8.333-3.582-8.333-8v-32c0-4.418,3.915-8,8.333-8h18.667v-13
		h-107v45h16v-24c0-4.418,3.915-8,8.333-8h32c4.418,0,7.667,3.582,7.667,8v28.298c7,4.5,11.166,12.1,11.166,20.702
		c0,1.361,0.053,2.697-0.158,4H140.833z"/>
	<path style="fill:#C52D2F;" d="M20.541,154.417h5.626h114.667v-18h-0.166H65.008c-2.701,0-5.22-1.363-6.697-3.625
		c-1.478-2.261-1.714-5.115-0.629-7.589l19.304-44c1.276-2.908,4.15-4.786,7.326-4.786h85.111l9.683-13H58.102L20.541,154.417z"/>
	<polygon style="fill:#C52D2F;" points="89.539,92.417 77.254,120.417 136.651,120.417 157.506,92.417 	"/>
	<rect x="129.833" y="199.417" style="fill:#C8F1DE;" width="11" height="16"/>
	<path style="fill:#FFFFFF;" d="M157.304,136.417h-0.471v124h34v-31c0-4.418,3.915-8,8.333-8h32c4.418,0,7.667,3.582,7.667,8v31h34
		v-124H157.304z M254.833,198.417c0,4.418-3.582,8-8,8h-64c-4.418,0-8-3.582-8-8v-40c0-4.418,3.582-8,8-8h64c4.418,0,8,3.582,8,8
		V198.417z"/>
	<polygon style="fill:#C52D2F;" points="156.604,120.417 273.673,120.417 214.46,42.758 	"/>
	<path d="M296.195,123.553l-75.448-98.962c-1.514-1.985-3.866-3.175-6.361-3.175c-0.015,0-0.029,0-0.045,0
		c-2.511,0-4.87,1.232-6.37,3.246l-16.947,22.754H52.75c-3.239,0-6.159,1.953-7.395,4.947l-44.166,107
		c-1.02,2.469-0.739,5.282,0.745,7.501c1.485,2.22,3.979,3.552,6.649,3.552h9.25v46.005C7.833,219.457,0,229.061,0,240.417
		c0,13.785,11.381,25,25.167,25h59c5.616,0,10.805-1.862,14.982-5h41.685v8c0,4.418,3.915,8,8.333,8h132
		c4.418,0,7.667-3.582,7.667-8v-132h1c3.042,0,5.82-1.73,7.17-4.457C298.352,129.233,298.039,125.972,296.195,123.553z
		 M272.833,260.417h-34v-31c0-4.418-3.249-8-7.667-8h-32c-4.418,0-8.333,3.582-8.333,8v31h-34v-124h0.471h115.529V260.417z
		 M222.833,260.417h-16v-23h16V260.417z M81.834,215.417h-16v-16h16V215.417z M25.167,231.417h33h26c4.963,0,9,4.037,9,9
		c0,4.963-4.037,9-9,9h-59c-4.963,0-9-4.037-9-9C16.167,235.454,20.204,231.417,25.167,231.417z M97.834,219.715v-28.298
		c0-4.418-3.249-8-7.667-8h-32c-4.418,0-8.333,3.582-8.333,8v24h-16v-45h107v13h-18.667c-4.418,0-8.333,3.582-8.333,8v32
		c0,4.418,3.915,8,8.333,8h18.667v13h-31.991c0.211-1.303,0.158-2.639,0.158-4C109,231.815,104.834,224.215,97.834,219.715z
		 M214.46,42.758l59.214,77.658H156.604L214.46,42.758z M140.833,215.417h-11v-16h11V215.417z M77.254,120.417l12.284-28h67.968
		l-20.855,28H77.254z M169.423,76.417H84.312c-3.176,0-6.05,1.878-7.326,4.786l-19.304,44c-1.085,2.474-0.849,5.328,0.629,7.589
		c1.478,2.262,3.996,3.625,6.697,3.625h75.659h0.166v18H26.167h-5.626l37.562-91h121.004L169.423,76.417z"/>
	<rect x="206.833" y="237.417" style="fill:#A05200;" width="16" height="23"/>
	<rect x="65.834" y="199.417" style="fill:#C8F1DE;" width="16" height="16"/>
	<rect x="190.833" y="166.417" style="fill:#C8F1DE;" width="16" height="24"/>
	<rect x="222.833" y="166.417" style="fill:#C8F1DE;" width="16" height="24"/>
	<path d="M254.833,158.417c0-4.418-3.582-8-8-8h-64c-4.418,0-8,3.582-8,8v40c0,4.418,3.582,8,8,8h64c4.418,0,8-3.582,8-8V158.417z
		 M238.833,190.417h-16v-24h16V190.417z M190.833,166.417h16v24h-16V166.417z"/>
	<path style="fill:#A9BD34;" d="M16.167,240.417c0,4.963,4.037,9,9,9h59c4.963,0,9-4.037,9-9c0-4.963-4.037-9-9-9h-26h-33
		C20.204,231.417,16.167,235.454,16.167,240.417z"/>
</g>
<g>
</g>
<g>
</g>
<g>
</g>
<g>
</g>
<g>
</g>
<g>
</g>
<g>
</g>
<g>
</g>
<g>
</g>
<g>
</g>
<g>
</g>
<g>
</g>
<g>
</g>
<g>
</g>
<g>
</g>
</svg>
